<mxfile host="Electron" agent="Mozilla/5.0 (Macintosh; Intel Mac OS X 10_15_7) AppleWebKit/537.36 (KHTML, like Gecko) draw.io/24.7.5 Chrome/126.0.6478.183 Electron/31.3.0 Safari/537.36" version="24.7.5">
  <diagram name="Page-1" id="4vVAVvwahvJQGVmaElpJ">
    <mxGraphModel dx="1026" dy="659" grid="1" gridSize="10" guides="1" tooltips="1" connect="1" arrows="1" fold="1" page="1" pageScale="1" pageWidth="827" pageHeight="1169" math="0" shadow="0">
      <root>
        <mxCell id="0" />
        <mxCell id="1" parent="0" />
        <mxCell id="91fvWIsuMJK-iadL7rpD-5" style="edgeStyle=orthogonalEdgeStyle;rounded=0;orthogonalLoop=1;jettySize=auto;html=1;exitX=1;exitY=0.5;exitDx=0;exitDy=0;entryX=0.5;entryY=0;entryDx=0;entryDy=0;" edge="1" parent="1" source="91fvWIsuMJK-iadL7rpD-1" target="91fvWIsuMJK-iadL7rpD-3">
          <mxGeometry relative="1" as="geometry" />
        </mxCell>
        <mxCell id="91fvWIsuMJK-iadL7rpD-1" value="Task Management" style="rounded=1;whiteSpace=wrap;html=1;fontSize=18;" vertex="1" parent="1">
          <mxGeometry x="80" y="160" width="120" height="60" as="geometry" />
        </mxCell>
        <mxCell id="91fvWIsuMJK-iadL7rpD-7" style="edgeStyle=orthogonalEdgeStyle;rounded=0;orthogonalLoop=1;jettySize=auto;html=1;exitX=1;exitY=0.5;exitDx=0;exitDy=0;entryX=0.5;entryY=1;entryDx=0;entryDy=0;" edge="1" parent="1" source="91fvWIsuMJK-iadL7rpD-2" target="91fvWIsuMJK-iadL7rpD-3">
          <mxGeometry relative="1" as="geometry" />
        </mxCell>
        <mxCell id="91fvWIsuMJK-iadL7rpD-2" value="Connection Management" style="rounded=1;whiteSpace=wrap;html=1;fontSize=18;" vertex="1" parent="1">
          <mxGeometry x="80" y="320" width="120" height="60" as="geometry" />
        </mxCell>
        <mxCell id="91fvWIsuMJK-iadL7rpD-11" style="edgeStyle=orthogonalEdgeStyle;rounded=0;orthogonalLoop=1;jettySize=auto;html=1;exitX=1;exitY=0.5;exitDx=0;exitDy=0;entryX=0;entryY=0.5;entryDx=0;entryDy=0;" edge="1" parent="1" source="91fvWIsuMJK-iadL7rpD-3" target="91fvWIsuMJK-iadL7rpD-4">
          <mxGeometry relative="1" as="geometry" />
        </mxCell>
        <mxCell id="91fvWIsuMJK-iadL7rpD-3" value="Velocity Coordination" style="rounded=1;whiteSpace=wrap;html=1;fontSize=18;" vertex="1" parent="1">
          <mxGeometry x="310" y="240" width="120" height="60" as="geometry" />
        </mxCell>
        <mxCell id="91fvWIsuMJK-iadL7rpD-14" style="edgeStyle=orthogonalEdgeStyle;rounded=0;orthogonalLoop=1;jettySize=auto;html=1;exitX=0.5;exitY=1;exitDx=0;exitDy=0;" edge="1" parent="1" source="91fvWIsuMJK-iadL7rpD-4" target="91fvWIsuMJK-iadL7rpD-13">
          <mxGeometry relative="1" as="geometry" />
        </mxCell>
        <mxCell id="91fvWIsuMJK-iadL7rpD-4" value="Collision Avoidance" style="rounded=1;whiteSpace=wrap;html=1;fontSize=18;" vertex="1" parent="1">
          <mxGeometry x="630" y="240" width="120" height="60" as="geometry" />
        </mxCell>
        <mxCell id="91fvWIsuMJK-iadL7rpD-9" value="task velocity" style="text;html=1;align=center;verticalAlign=middle;whiteSpace=wrap;rounded=0;fontSize=16;" vertex="1" parent="1">
          <mxGeometry x="240" y="160" width="90" height="30" as="geometry" />
        </mxCell>
        <mxCell id="91fvWIsuMJK-iadL7rpD-10" value="connection velocity" style="text;html=1;align=center;verticalAlign=middle;whiteSpace=wrap;rounded=0;fontSize=16;" vertex="1" parent="1">
          <mxGeometry x="225" y="350" width="140" height="30" as="geometry" />
        </mxCell>
        <mxCell id="91fvWIsuMJK-iadL7rpD-12" value="coordinated velocity" style="text;html=1;align=center;verticalAlign=middle;whiteSpace=wrap;rounded=0;fontSize=16;" vertex="1" parent="1">
          <mxGeometry x="450" y="240" width="160" height="30" as="geometry" />
        </mxCell>
        <mxCell id="91fvWIsuMJK-iadL7rpD-17" style="edgeStyle=orthogonalEdgeStyle;rounded=0;orthogonalLoop=1;jettySize=auto;html=1;exitX=0;exitY=0.5;exitDx=0;exitDy=0;entryX=1;entryY=0.5;entryDx=0;entryDy=0;" edge="1" parent="1" source="91fvWIsuMJK-iadL7rpD-13" target="91fvWIsuMJK-iadL7rpD-16">
          <mxGeometry relative="1" as="geometry" />
        </mxCell>
        <mxCell id="91fvWIsuMJK-iadL7rpD-13" value="Velocity Setter" style="rounded=1;whiteSpace=wrap;html=1;fontSize=18;" vertex="1" parent="1">
          <mxGeometry x="630" y="440" width="120" height="60" as="geometry" />
        </mxCell>
        <mxCell id="91fvWIsuMJK-iadL7rpD-15" value="safe velocity" style="text;html=1;align=center;verticalAlign=middle;whiteSpace=wrap;rounded=0;fontSize=16;" vertex="1" parent="1">
          <mxGeometry x="630" y="350" width="60" height="30" as="geometry" />
        </mxCell>
        <mxCell id="91fvWIsuMJK-iadL7rpD-16" value="final velocity" style="text;html=1;align=center;verticalAlign=middle;whiteSpace=wrap;rounded=0;fontSize=16;" vertex="1" parent="1">
          <mxGeometry x="470" y="455" width="60" height="30" as="geometry" />
        </mxCell>
      </root>
    </mxGraphModel>
  </diagram>
</mxfile>
